<svg preserveAspectRatio="none" width="100%" height="100%" overflow="visible" style="display: block;" viewBox="0 0 40 40" fill="none" xmlns="http://www.w3.org/2000/svg">
<g id="&#240;&#159;&#154;&#168; &#236;&#130;&#172;&#236;&#157;&#180;&#235;&#160;&#140;">
<path id="Vector" d="M34.469 18.558C34.469 10.567 27.991 4.089 20 4.089C12.009 4.089 5.531 10.567 5.531 18.558V34.342H34.47L34.469 18.558Z" fill="var(--fill-0, #E32939)"/>
<path id="Vector_2" d="M29.332 18.792C29.332 13.638 25.154 9.46 20 9.46C14.846 9.46 10.668 13.638 10.668 18.792V30.262H29.333L29.332 18.792Z" fill="var(--fill-0, #EF4452)"/>
<path id="Vector_3" d="M20 15.372C21.072 15.372 21.942 16.242 21.942 17.314V30.829H18.059V17.314C18.059 16.242 18.928 15.372 20 15.372Z" fill="var(--fill-0, #F56570)"/>
<path id="Vector_4" d="M35.934 30.217H4.066C3.47726 30.217 3 30.6943 3 31.283V34.845C3 35.4337 3.47726 35.911 4.066 35.911H35.934C36.5227 35.911 37 35.4337 37 34.845V31.283C37 30.6943 36.5227 30.217 35.934 30.217Z" fill="var(--fill-0, #333D4B)"/>
</g>
</svg>
